solid OpenSCAD_Model
  facet normal 0.587783 0 -0.809019
    outer loop
      vertex 5 0 -8.66025
      vertex 6.69131 -8.74354 -7.43145
      vertex 5 -9.45299 -8.66025
    endloop
  endfacet
  facet normal 0.587783 0 -0.809019
    outer loop
      vertex 6.69131 -8.74354 -7.43145
      vertex 5 0 -8.66025
      vertex 6.69131 0 -7.43145
    endloop
  endfacet
  facet normal 0.951055 -0 0.309021
    outer loop
      vertex 9.13545 -2.1047 4.06737
      vertex 9.78148 0 2.07912
      vertex 9.13545 0 4.06737
    endloop
  endfacet
  facet normal 0.951055 0 0.309021
    outer loop
      vertex 9.78148 0 2.07912
      vertex 9.13545 -2.1047 4.06737
      vertex 9.78148 -3.25262 2.07912
    endloop
  endfacet
  facet normal 0.994522 -0 0.104526
    outer loop
      vertex 9.78148 -3.25262 2.07912
      vertex 10 0 0
      vertex 9.78148 0 2.07912
    endloop
  endfacet
  facet normal 0.994522 0 0.104526
    outer loop
      vertex 10 0 0
      vertex 9.78148 -3.25262 2.07912
      vertex 10 -4.45299 0
    endloop
  endfacet
  facet normal 0.866026 -0 0.5
    outer loop
      vertex 8.09017 -1.05942 5.87785
      vertex 9.13545 0 4.06737
      vertex 8.09017 0 5.87785
    endloop
  endfacet
  facet normal 0.866026 0 0.5
    outer loop
      vertex 9.13545 0 4.06737
      vertex 8.09017 -1.05942 5.87785
      vertex 9.13545 -2.1047 4.06737
    endloop
  endfacet
  facet normal -0.587774 0 0.809025
    outer loop
      vertex -6.30404 0 7.71281
      vertex -6.69131 0 7.43145
      vertex -6.69131 -0.162446 7.43145
    endloop
  endfacet
  facet normal 0 0 -1
    outer loop
      vertex -1.04528 -10.1949 -9.94522
      vertex 1.04528 0 -9.94522
      vertex 1.04528 -10.1949 -9.94522
    endloop
  endfacet
  facet normal -0 0 -1
    outer loop
      vertex 1.04528 0 -9.94522
      vertex -1.04528 -10.1949 -9.94522
      vertex -1.04528 0 -9.94522
    endloop
  endfacet
  facet normal 0.994522 0 -0.104526
    outer loop
      vertex 10 -4.45299 0
      vertex 9.78148 0 -2.07912
      vertex 10 0 0
    endloop
  endfacet
  facet normal 0.994522 0 -0.104526
    outer loop
      vertex 9.78148 0 -2.07912
      vertex 10 -4.45299 0
      vertex 9.78148 -5.65337 -2.07912
    endloop
  endfacet
  facet normal 0.866026 0 -0.5
    outer loop
      vertex 9.13545 -6.80129 -4.06737
      vertex 8.09017 0 -5.87785
      vertex 9.13545 0 -4.06737
    endloop
  endfacet
  facet normal 0.866026 0 -0.5
    outer loop
      vertex 8.09017 0 -5.87785
      vertex 9.13545 -6.80129 -4.06737
      vertex 8.09017 -7.84657 -5.87785
    endloop
  endfacet
  facet normal 0.743147 -0 0.669129
    outer loop
      vertex 6.69131 -0.162446 7.43145
      vertex 8.09017 0 5.87785
      vertex 6.69131 0 7.43145
    endloop
  endfacet
  facet normal 0.743147 0 0.669129
    outer loop
      vertex 8.09017 0 5.87785
      vertex 6.69131 -0.162446 7.43145
      vertex 8.09017 -1.05942 5.87785
    endloop
  endfacet
  facet normal -0.743147 0 0.669129
    outer loop
      vertex -8.09017 0 5.87785
      vertex -6.69131 -0.162446 7.43145
      vertex -6.69131 0 7.43145
    endloop
  endfacet
  facet normal -0.743147 0 0.669129
    outer loop
      vertex -6.69131 -0.162446 7.43145
      vertex -8.09017 0 5.87785
      vertex -8.09017 -1.05942 5.87785
    endloop
  endfacet
  facet normal -0.994522 0 0.104526
    outer loop
      vertex -10 0 0
      vertex -9.78148 -3.25262 2.07912
      vertex -9.78148 0 2.07912
    endloop
  endfacet
  facet normal -0.994522 0 0.104526
    outer loop
      vertex -9.78148 -3.25262 2.07912
      vertex -10 0 0
      vertex -10 -4.45299 0
    endloop
  endfacet
  facet normal 0.406736 0 -0.913546
    outer loop
      vertex 3.09017 0 -9.51056
      vertex 5 -9.45299 -8.66025
      vertex 3.09017 -9.94392 -9.51056
    endloop
  endfacet
  facet normal 0.406736 0 -0.913546
    outer loop
      vertex 5 -9.45299 -8.66025
      vertex 3.09017 0 -9.51056
      vertex 5 0 -8.66025
    endloop
  endfacet
  facet normal 0.207914 0 -0.978147
    outer loop
      vertex 1.04528 0 -9.94522
      vertex 3.09017 -9.94392 -9.51056
      vertex 1.04528 -10.1949 -9.94522
    endloop
  endfacet
  facet normal 0.207914 0 -0.978147
    outer loop
      vertex 3.09017 -9.94392 -9.51056
      vertex 1.04528 0 -9.94522
      vertex 3.09017 0 -9.51056
    endloop
  endfacet
  facet normal -0.951055 0 0.309021
    outer loop
      vertex -9.78148 0 2.07912
      vertex -9.13545 -2.1047 4.06737
      vertex -9.13545 0 4.06737
    endloop
  endfacet
  facet normal -0.951055 0 0.309021
    outer loop
      vertex -9.13545 -2.1047 4.06737
      vertex -9.78148 0 2.07912
      vertex -9.78148 -3.25262 2.07912
    endloop
  endfacet
  facet normal -0.743147 0 -0.669129
    outer loop
      vertex -6.69131 0 -7.43145
      vertex -8.09017 -7.84657 -5.87785
      vertex -8.09017 0 -5.87785
    endloop
  endfacet
  facet normal -0.743147 0 -0.669129
    outer loop
      vertex -8.09017 -7.84657 -5.87785
      vertex -6.69131 0 -7.43145
      vertex -6.69131 -8.74354 -7.43145
    endloop
  endfacet
  facet normal -0.866026 0 -0.5
    outer loop
      vertex -8.09017 0 -5.87785
      vertex -9.13545 -6.80129 -4.06737
      vertex -9.13545 0 -4.06737
    endloop
  endfacet
  facet normal -0.866026 0 -0.5
    outer loop
      vertex -9.13545 -6.80129 -4.06737
      vertex -8.09017 0 -5.87785
      vertex -8.09017 -7.84657 -5.87785
    endloop
  endfacet
  facet normal -0.994522 0 -0.104526
    outer loop
      vertex -9.78148 0 -2.07912
      vertex -10 -4.45299 0
      vertex -10 0 0
    endloop
  endfacet
  facet normal -0.994522 0 -0.104526
    outer loop
      vertex -10 -4.45299 0
      vertex -9.78148 0 -2.07912
      vertex -9.78148 -5.65337 -2.07912
    endloop
  endfacet
  facet normal 0.743147 0 -0.669129
    outer loop
      vertex 8.09017 -7.84657 -5.87785
      vertex 6.69131 0 -7.43145
      vertex 8.09017 0 -5.87785
    endloop
  endfacet
  facet normal 0.743147 0 -0.669129
    outer loop
      vertex 6.69131 0 -7.43145
      vertex 8.09017 -7.84657 -5.87785
      vertex 6.69131 -8.74354 -7.43145
    endloop
  endfacet
  facet normal -0.866026 0 0.5
    outer loop
      vertex -9.13545 0 4.06737
      vertex -8.09017 -1.05942 5.87785
      vertex -8.09017 0 5.87785
    endloop
  endfacet
  facet normal -0.866026 0 0.5
    outer loop
      vertex -8.09017 -1.05942 5.87785
      vertex -9.13545 0 4.06737
      vertex -9.13545 -2.1047 4.06737
    endloop
  endfacet
  facet normal -0.207914 0 -0.978147
    outer loop
      vertex -3.09017 -9.94392 -9.51056
      vertex -1.04528 0 -9.94522
      vertex -1.04528 -10.1949 -9.94522
    endloop
  endfacet
  facet normal -0.207914 0 -0.978147
    outer loop
      vertex -1.04528 0 -9.94522
      vertex -3.09017 -9.94392 -9.51056
      vertex -3.09017 0 -9.51056
    endloop
  endfacet
  facet normal 0.587774 0 0.809025
    outer loop
      vertex 6.69131 0 7.43145
      vertex 6.30404 0 7.71281
      vertex 6.69131 -0.162446 7.43145
    endloop
  endfacet
  facet normal 0.951055 0 -0.309021
    outer loop
      vertex 9.78148 -5.65337 -2.07912
      vertex 9.13545 0 -4.06737
      vertex 9.78148 0 -2.07912
    endloop
  endfacet
  facet normal 0.951055 0 -0.309021
    outer loop
      vertex 9.13545 0 -4.06737
      vertex 9.78148 -5.65337 -2.07912
      vertex 9.13545 -6.80129 -4.06737
    endloop
  endfacet
  facet normal -0.951055 0 -0.309021
    outer loop
      vertex -9.13545 0 -4.06737
      vertex -9.78148 -5.65337 -2.07912
      vertex -9.78148 0 -2.07912
    endloop
  endfacet
  facet normal -0.951055 0 -0.309021
    outer loop
      vertex -9.78148 -5.65337 -2.07912
      vertex -9.13545 0 -4.06737
      vertex -9.13545 -6.80129 -4.06737
    endloop
  endfacet
  facet normal -0.587783 0 -0.809019
    outer loop
      vertex -6.69131 -8.74354 -7.43145
      vertex -5 0 -8.66025
      vertex -5 -9.45299 -8.66025
    endloop
  endfacet
  facet normal -0.587783 0 -0.809019
    outer loop
      vertex -5 0 -8.66025
      vertex -6.69131 -8.74354 -7.43145
      vertex -6.69131 0 -7.43145
    endloop
  endfacet
  facet normal 0 1 0
    outer loop
      vertex 8.09017 0 5.87785
      vertex 6.30404 0 7.71281
      vertex 6.69131 0 7.43145
    endloop
  endfacet
  facet normal 0 1 0
    outer loop
      vertex 9.13545 0 4.06737
      vertex 6.30404 0 7.71281
      vertex 8.09017 0 5.87785
    endloop
  endfacet
  facet normal 0 1 0
    outer loop
      vertex 6.30404 0 7.71281
      vertex 9.13545 0 4.06737
      vertex -6.30404 0 7.71281
    endloop
  endfacet
  facet normal 0 1 0
    outer loop
      vertex -6.30404 0 7.71281
      vertex -8.09017 0 5.87785
      vertex -6.69131 0 7.43145
    endloop
  endfacet
  facet normal 0 1 0
    outer loop
      vertex -9.13545 0 4.06737
      vertex -6.30404 0 7.71281
      vertex 9.13545 0 4.06737
    endloop
  endfacet
  facet normal 0 1 0
    outer loop
      vertex -6.30404 0 7.71281
      vertex -9.13545 0 4.06737
      vertex -8.09017 0 5.87785
    endloop
  endfacet
  facet normal 0 1 0
    outer loop
      vertex 9.78148 0 2.07912
      vertex -9.13545 0 4.06737
      vertex 9.13545 0 4.06737
    endloop
  endfacet
  facet normal 0 1 0
    outer loop
      vertex 9.78148 0 2.07912
      vertex -9.78148 0 2.07912
      vertex -9.13545 0 4.06737
    endloop
  endfacet
  facet normal 0 1 0
    outer loop
      vertex 10 0 0
      vertex -9.78148 0 2.07912
      vertex 9.78148 0 2.07912
    endloop
  endfacet
  facet normal 0 1 0
    outer loop
      vertex 10 0 0
      vertex -10 0 0
      vertex -9.78148 0 2.07912
    endloop
  endfacet
  facet normal 0 1 -0
    outer loop
      vertex 9.78148 0 -2.07912
      vertex -10 0 0
      vertex 10 0 0
    endloop
  endfacet
  facet normal 0 1 0
    outer loop
      vertex 9.78148 0 -2.07912
      vertex -9.78148 0 -2.07912
      vertex -10 0 0
    endloop
  endfacet
  facet normal 0 1 -0
    outer loop
      vertex 9.13545 0 -4.06737
      vertex -9.78148 0 -2.07912
      vertex 9.78148 0 -2.07912
    endloop
  endfacet
  facet normal 0 1 0
    outer loop
      vertex 9.13545 0 -4.06737
      vertex -9.13545 0 -4.06737
      vertex -9.78148 0 -2.07912
    endloop
  endfacet
  facet normal 0 1 -0
    outer loop
      vertex 8.09017 0 -5.87785
      vertex -9.13545 0 -4.06737
      vertex 9.13545 0 -4.06737
    endloop
  endfacet
  facet normal 0 1 0
    outer loop
      vertex 8.09017 0 -5.87785
      vertex -8.09017 0 -5.87785
      vertex -9.13545 0 -4.06737
    endloop
  endfacet
  facet normal 0 1 -0
    outer loop
      vertex 6.69131 0 -7.43145
      vertex -8.09017 0 -5.87785
      vertex 8.09017 0 -5.87785
    endloop
  endfacet
  facet normal 0 1 0
    outer loop
      vertex 6.69131 0 -7.43145
      vertex -6.69131 0 -7.43145
      vertex -8.09017 0 -5.87785
    endloop
  endfacet
  facet normal 0 1 -0
    outer loop
      vertex 5 0 -8.66025
      vertex -6.69131 0 -7.43145
      vertex 6.69131 0 -7.43145
    endloop
  endfacet
  facet normal 0 1 0
    outer loop
      vertex 5 0 -8.66025
      vertex -5 0 -8.66025
      vertex -6.69131 0 -7.43145
    endloop
  endfacet
  facet normal 0 1 -0
    outer loop
      vertex 3.09017 0 -9.51056
      vertex -5 0 -8.66025
      vertex 5 0 -8.66025
    endloop
  endfacet
  facet normal 0 1 0
    outer loop
      vertex 3.09017 0 -9.51056
      vertex -3.09017 0 -9.51056
      vertex -5 0 -8.66025
    endloop
  endfacet
  facet normal 0 1 -0
    outer loop
      vertex 1.04528 0 -9.94522
      vertex -3.09017 0 -9.51056
      vertex 3.09017 0 -9.51056
    endloop
  endfacet
  facet normal 0 1 0
    outer loop
      vertex -3.09017 0 -9.51056
      vertex 1.04528 0 -9.94522
      vertex -1.04528 0 -9.94522
    endloop
  endfacet
  facet normal -0.406736 0 -0.913546
    outer loop
      vertex -5 -9.45299 -8.66025
      vertex -3.09017 0 -9.51056
      vertex -3.09017 -9.94392 -9.51056
    endloop
  endfacet
  facet normal -0.406736 0 -0.913546
    outer loop
      vertex -3.09017 0 -9.51056
      vertex -5 -9.45299 -8.66025
      vertex -5 0 -8.66025
    endloop
  endfacet
  facet normal 1.45711e-05 -0.86603 0.499991
    outer loop
      vertex -8.09017 -1.05942 5.87785
      vertex -6.30404 0 7.71281
      vertex -6.69131 -0.162446 7.43145
    endloop
  endfacet
  facet normal 7.7228e-06 -0.866028 0.499996
    outer loop
      vertex -9.13545 -2.1047 4.06737
      vertex -6.30404 0 7.71281
      vertex -8.09017 -1.05942 5.87785
    endloop
  endfacet
  facet normal 0 -0.866025 0.500001
    outer loop
      vertex -6.30404 0 7.71281
      vertex -9.13545 -2.1047 4.06737
      vertex 6.30404 0 7.71281
    endloop
  endfacet
  facet normal -1.45711e-05 -0.86603 0.499991
    outer loop
      vertex 6.30404 0 7.71281
      vertex 8.09017 -1.05942 5.87785
      vertex 6.69131 -0.162446 7.43145
    endloop
  endfacet
  facet normal 0 -0.866025 0.500001
    outer loop
      vertex 9.13545 -2.1047 4.06737
      vertex 6.30404 0 7.71281
      vertex -9.13545 -2.1047 4.06737
    endloop
  endfacet
  facet normal -7.7228e-06 -0.866028 0.499996
    outer loop
      vertex 6.30404 0 7.71281
      vertex 9.13545 -2.1047 4.06737
      vertex 8.09017 -1.05942 5.87785
    endloop
  endfacet
  facet normal 0 -0.866025 0.500001
    outer loop
      vertex -9.78148 -3.25262 2.07912
      vertex 9.13545 -2.1047 4.06737
      vertex -9.13545 -2.1047 4.06737
    endloop
  endfacet
  facet normal 0 -0.866025 0.500001
    outer loop
      vertex -9.78148 -3.25262 2.07912
      vertex 9.78148 -3.25262 2.07912
      vertex 9.13545 -2.1047 4.06737
    endloop
  endfacet
  facet normal 0 -0.866027 0.499997
    outer loop
      vertex -10 -4.45299 0
      vertex 9.78148 -3.25262 2.07912
      vertex -9.78148 -3.25262 2.07912
    endloop
  endfacet
  facet normal 0 -0.866027 0.499997
    outer loop
      vertex -10 -4.45299 0
      vertex 10 -4.45299 0
      vertex 9.78148 -3.25262 2.07912
    endloop
  endfacet
  facet normal 0 -0.866025 0.5
    outer loop
      vertex -9.78148 -5.65337 -2.07912
      vertex 10 -4.45299 0
      vertex -10 -4.45299 0
    endloop
  endfacet
  facet normal 0 -0.866025 0.5
    outer loop
      vertex -9.78148 -5.65337 -2.07912
      vertex 9.78148 -5.65337 -2.07912
      vertex 10 -4.45299 0
    endloop
  endfacet
  facet normal 0 -0.866025 0.500001
    outer loop
      vertex -9.13545 -6.80129 -4.06737
      vertex 9.78148 -5.65337 -2.07912
      vertex -9.78148 -5.65337 -2.07912
    endloop
  endfacet
  facet normal 0 -0.866025 0.500001
    outer loop
      vertex -9.13545 -6.80129 -4.06737
      vertex 9.13545 -6.80129 -4.06737
      vertex 9.78148 -5.65337 -2.07912
    endloop
  endfacet
  facet normal 0 -0.866026 0.5
    outer loop
      vertex -8.09017 -7.84657 -5.87785
      vertex 9.13545 -6.80129 -4.06737
      vertex -9.13545 -6.80129 -4.06737
    endloop
  endfacet
  facet normal 0 -0.866026 0.5
    outer loop
      vertex -8.09017 -7.84657 -5.87785
      vertex 8.09017 -7.84657 -5.87785
      vertex 9.13545 -6.80129 -4.06737
    endloop
  endfacet
  facet normal 0 -0.866026 0.499999
    outer loop
      vertex -6.69131 -8.74354 -7.43145
      vertex 8.09017 -7.84657 -5.87785
      vertex -8.09017 -7.84657 -5.87785
    endloop
  endfacet
  facet normal 0 -0.866026 0.499999
    outer loop
      vertex -6.69131 -8.74354 -7.43145
      vertex 6.69131 -8.74354 -7.43145
      vertex 8.09017 -7.84657 -5.87785
    endloop
  endfacet
  facet normal 0 -0.866025 0.500001
    outer loop
      vertex -5 -9.45299 -8.66025
      vertex 6.69131 -8.74354 -7.43145
      vertex -6.69131 -8.74354 -7.43145
    endloop
  endfacet
  facet normal 0 -0.866025 0.500001
    outer loop
      vertex -5 -9.45299 -8.66025
      vertex 5 -9.45299 -8.66025
      vertex 6.69131 -8.74354 -7.43145
    endloop
  endfacet
  facet normal 0 -0.866024 0.500003
    outer loop
      vertex -3.09017 -9.94392 -9.51056
      vertex 5 -9.45299 -8.66025
      vertex -5 -9.45299 -8.66025
    endloop
  endfacet
  facet normal 0 -0.866024 0.500003
    outer loop
      vertex -3.09017 -9.94392 -9.51056
      vertex 3.09017 -9.94392 -9.51056
      vertex 5 -9.45299 -8.66025
    endloop
  endfacet
  facet normal 0 -0.866 0.500043
    outer loop
      vertex -1.04528 -10.1949 -9.94522
      vertex 3.09017 -9.94392 -9.51056
      vertex -3.09017 -9.94392 -9.51056
    endloop
  endfacet
  facet normal 0 -0.866 0.500043
    outer loop
      vertex 3.09017 -9.94392 -9.51056
      vertex -1.04528 -10.1949 -9.94522
      vertex 1.04528 -10.1949 -9.94522
    endloop
  endfacet
endsolid OpenSCAD_Model
