solid OpenSCAD_Model
  facet normal -0.57735 -0.57735 0.57735
    outer loop
      vertex -1 1 -1
      vertex 1 -1 -1
      vertex 1 1 1
    endloop
  endfacet
  facet normal -0.57735 -0.57735 -0.57735
    outer loop
      vertex -1 -1 1
      vertex -1 1 -1
      vertex 1 -1 -1
    endloop
  endfacet
  facet normal 0.57735 -0.57735 -0.57735
    outer loop
      vertex 1 1 1
      vertex -1 -1 1
      vertex -1 1 -1
    endloop
  endfacet
  facet normal 0.57735 -0.57735 0.57735
    outer loop
      vertex -1 -1 1
      vertex 1 -1 -1
      vertex 1 1 1
    endloop
  endfacet
endsolid OpenSCAD_Model
